# xmcd
#
# Track frame offsets: 
#        150
#        20251
#        38182
#        58304
#        80445
#        93483
#        109951
#
# Disc length: 1933 seconds
#
# Revision: 0
# Processed by: cddbd v1.5.2PL0 Copyright (c) Steve Scherf et al.
# Submitted via: ExactAudioCopyFreeDBPlugin 1.0
#
DISCID=56078b07
DTITLE=Mountain Heart - That Just Happened
DYEAR=2011
DGENRE=Bluegrass
TTITLE0=That Just Happened
TTITLE1=Little Sadie
TTITLE2=Even If It Breaks My Heart
TTITLE3=Same Old Heartache
TTITLE4=Just Get Up and Go
TTITLE5=The Ride
TTITLE6=Whipping Post
EXTD=
EXTT0=
EXTT1=
EXTT2=
EXTT3=
EXTT4=
EXTT5=
EXTT6=
PLAYORDER=
